<?xml version="1.0" encoding="utf-8"?>
<svg xmlns="http://www.w3.org/2000/svg" viewBox="81.1617 223.347 216.8344 121.9901" viewbox="0 0 217 122">
  <path d="M 126.992 223.698 C 127.801 223.678 128.61 223.659 129.443 223.639 C 133.175 223.581 136.907 223.532 140.639 223.501 C 142.588 223.48 144.537 223.446 146.486 223.399 C 162.763 223.009 177.017 224.591 189.782 235.738 C 193.012 239.133 195.783 243.042 198.096 247.105 C 200 245.233 202.132 242.884 202.906 242.039 C 204.172 240.658 204.685 240.023 208.248 237.062 C 216.062 230.569 223.254 225.03 243.829 224.7 C 244.603 224.688 285.339 224.187 296.844 224.906 C 296.477 246.913 296.639 225.117 296.631 246.775 C 256.369 246.345 279.518 246.351 263.254 246.551 C 240.616 246.478 233.756 246.924 221.993 255.547 C 215.534 262.61 214.301 269.481 214.282 278.781 C 214.649 287.263 217.573 295.56 223.594 301.719 C 232.455 307.683 240.647 308.506 251.165 308.516 C 252.518 308.531 290.779 308.872 297.844 308.906 C 298.09 329.782 297.623 309.33 297.996 330.34 C 257.827 330.578 267.351 330.644 247.985 330.371 C 238.353 330.235 227.306 328.12 218.235 324.688 C 218.235 324.028 207.47 320.386 198.453 308.345 C 198.062 309.253 192.25 315.879 188.844 317.906 C 182.384 310.346 181.089 308.113 175.111 300 C 177.937 295.764 179.676 292.213 180.354 290.911 C 180.695 290.271 183.338 285.66 183.671 283.404 C 183.953 281.495 184.967 276.552 183.511 271.687 C 180.327 261.047 176.414 259.145 174.936 256.676 C 167.585 250.256 157.758 247.359 145.844 246.906 C 144.755 246.854 143.666 246.801 142.544 246.746 C 132.167 246.46 120.875 247.658 112.844 254.906 C 110.844 257.429 109.107 258.518 107.694 261.408 C 107.327 262.143 106.511 264.376 106.132 265.133 C 104.943 268.851 104.381 274.217 104.483 278.078 C 104.617 283.152 105.756 287.382 108.095 292.056 C 108.608 293.157 108.908 293.307 109.431 294.429 C 113.185 301.152 119.624 304.499 126.844 306.906 C 138.728 308.443 146.286 306.927 148.844 306.906 C 148.349 306.453 140.278 297.473 137.692 293.816 C 140.189 291.601 151.305 282.606 153.419 281.694 C 158.136 287.13 192.044 329.164 193.285 333.896 C 186.391 339.668 178.717 344.785 177.654 345.337 C 175.506 344.5 166.359 332.417 164.54 329.906 C 163.872 330.068 157.829 330.798 154.27 331.074 C 147.969 331.563 146.026 331.354 140.565 331.131 C 123.918 330.45 109.679 328.294 97.298 316.289 C 95.873 314.799 91.893 310.651 90.985 308.985 C 90.215 307.581 89.411 306.196 88.579 304.828 C 80.752 291.72 79.628 277.63 82.844 262.906 C 87.014 248.499 96.042 236.378 109.301 228.977 C 115.147 226.235 120.488 223.844 126.992 223.698 Z" style="fill: rgb(230, 48, 51);" id="object-0" transform="matrix(1, 0, 0, 1, 0, -1.4210854715202004e-14)"/>
</svg>